<?xml version="1.0" encoding="UTF-8"?>
<svg width="400px" height="400px" viewBox="0 0 400 400" version="1.1" xmlns="http://www.w3.org/2000/svg" xmlns:xlink="http://www.w3.org/1999/xlink">
    <!-- Generator: Sketch 50.2 (55047) - http://www.bohemiancoding.com/sketch -->
    <title>Artboard</title>
    <desc>Created with Sketch.</desc>
    <defs></defs>
    <g id="Artboard" stroke="none" stroke-width="1" fill="none" fill-rule="evenodd">
        <g id="Group" transform="translate(75.000000, 75.000000)">
            <circle id="Oval" fill="#000000" cx="125.5" cy="125.5" r="125.5"></circle>
            <path d="M133.352,79.412 C137.928023,79.412 141.975982,80.0499936 145.496,81.326 C149.016018,82.6020064 151.985988,84.3619888 154.406,86.606 C156.826012,88.8500112 158.673994,91.5119846 159.95,94.592 C161.226006,97.6720154 161.864,101.015982 161.864,104.624 C161.864,109.464024 160.588013,113.687982 158.036,117.296 C155.483987,120.904018 152.22802,123.367993 148.268,124.688 C150.556011,125.216003 152.68999,126.139993 154.67,127.46 C156.65001,128.780007 158.387993,130.385991 159.884,132.278 C161.380007,134.170009 162.567996,136.347988 163.448,138.812 C164.328004,141.276012 164.768,143.959985 164.768,146.864 C164.768,150.648019 164.086007,154.145984 162.722,157.358 C161.357993,160.570016 159.422013,163.319989 156.914,165.608 C154.405987,167.896011 151.370018,169.699993 147.806,171.02 C144.241982,172.340007 140.260022,173 135.86,173 L99.692,173 L99.692,79.412 L133.352,79.412 Z M130.58,118.088 C134.804021,118.088 138.081988,117.032011 140.414,114.92 C142.746012,112.807989 143.912,109.948018 143.912,106.34 C143.912,102.731982 142.790011,99.8940103 140.546,97.826 C138.301989,95.7579897 134.936022,94.724 130.448,94.724 L117.644,94.724 L117.644,118.088 L130.58,118.088 Z M132.428,157.82 C136.916022,157.82 140.391988,156.742011 142.856,154.586 C145.320012,152.429989 146.552,149.460019 146.552,145.676 C146.552,141.979982 145.386012,138.966012 143.054,136.634 C140.721988,134.301988 137.268023,133.136 132.692,133.136 L117.644,133.136 L117.644,157.82 L132.428,157.82 Z" id="B" fill="#FFFFFF"></path>
        </g>
    </g>
</svg>